# Blender 4.0.1
# www.blender.org
mtllib floor.mtl
o floor
v 9.948995 -0.000003 -9.948995
v 9.948995 0.000003 9.948995
v -9.948995 -0.000003 -9.948995
v -9.948995 0.000003 9.948995
v -9.948995 -2.006239 -9.948995
v -9.948995 -2.006233 9.948995
v 9.948995 -2.006239 -9.948995
v 9.948995 -2.006233 9.948995
vn -0.0000 1.0000 -0.0000
vn -0.0000 -0.0000 1.0000
vn -0.0000 -0.0000 -1.0000
vn 1.0000 -0.0000 -0.0000
vn -1.0000 -0.0000 -0.0000
vt 0.343750 0.025000
s 0
usemtl colormap.007
f 3/1/1 2/1/1 1/1/1
f 2/1/1 3/1/1 4/1/1
f 3/1/2 7/1/2 1/1/2
f 2/1/3 6/1/3 4/1/3
f 5/1/1 8/1/1 7/1/1
f 8/1/1 5/1/1 6/1/1
f 4/1/4 5/1/4 3/1/4
f 1/1/5 8/1/5 2/1/5
f 3/1/2 5/1/2 7/1/2
f 2/1/3 8/1/3 6/1/3
f 4/1/4 6/1/4 5/1/4
f 1/1/5 7/1/5 8/1/5
