# Blender 4.0.1
# www.blender.org
mtllib knife.mtl
o knife_smooth
v -0.006565 -0.010633 -0.339679
v 0.000000 -0.004068 -0.339679
v 0.000000 -0.043459 -0.355435
v -0.006565 -0.043459 -0.352809
v -0.006565 0.015628 -0.313417
v 0.000000 0.022194 -0.313417
v -0.006565 0.035324 -0.280591
v 0.000000 0.041890 -0.280591
v -0.006565 0.035324 0.001718
v 0.000000 0.041890 0.001718
v -0.036109 0.074716 0.001718
v 0.036109 0.074716 0.001718
v -0.036109 0.074716 0.014848
v 0.036109 0.074716 0.014848
v -0.049240 0.061586 0.014848
v -0.049240 0.061586 0.001718
v -0.039392 -0.000785 0.014848
v -0.019696 0.044701 0.014848
v -0.039392 -0.000785 0.192112
v -0.019696 0.044701 0.192112
v -0.019696 -0.046271 0.014848
v -0.019696 -0.046271 0.192112
v -0.036109 -0.076286 0.014848
v -0.049240 -0.063155 0.014848
v -0.049240 -0.063155 0.001718
v -0.036109 -0.076286 0.001718
v -0.006565 -0.043459 0.001718
v 0.006565 -0.043459 -0.352809
v 0.006565 -0.043459 0.001718
v 0.006565 -0.010633 -0.339679
v 0.006565 0.015628 -0.313417
v 0.006565 0.035324 -0.280591
v 0.006565 0.035324 0.001718
v 0.036109 -0.076286 0.001718
v 0.036109 -0.076286 0.014848
v 0.049240 -0.063155 0.014848
v 0.049240 -0.063155 0.001718
v 0.039392 -0.000785 0.014848
v 0.019696 -0.046271 0.014848
v 0.019696 -0.046271 0.192112
v 0.039392 -0.000785 0.192112
v 0.049240 -0.000785 0.211808
v 0.024620 -0.057642 0.211808
v 0.024620 0.056072 0.211808
v 0.019696 0.044701 0.192112
v 0.024620 0.056072 0.251199
v 0.049240 -0.000785 0.251199
v 0.024620 -0.057642 0.251199
v -0.024620 0.056072 0.251199
v -0.049240 -0.000785 0.251199
v -0.024620 -0.057642 0.251199
v -0.024620 -0.057642 0.211808
v -0.049240 -0.000785 0.211808
v -0.024620 0.056072 0.211808
v 0.019696 0.044701 0.014848
v 0.049240 0.061586 0.014848
v 0.049240 0.061586 0.001718
vn -0.3481 0.3482 -0.8704
vn -0.5774 0.5773 -0.5774
vn -0.6509 0.6509 -0.3906
vn -0.7071 0.7071 -0.0000
vn -0.0000 -0.0000 -1.0000
vn -0.0000 1.0000 -0.0000
vn -0.0000 -0.0000 1.0000
vn -0.9177 0.3974 -0.0000
vn -0.9177 -0.3974 -0.0000
vn -1.0000 -0.0000 -0.0000
vn -0.0000 -1.0000 -0.0000
vn 0.3482 0.3482 -0.8704
vn 0.5773 0.5774 -0.5773
vn 0.6509 0.6509 -0.3906
vn 0.7071 0.7071 -0.0000
vn 0.7071 -0.7071 -0.0000
vn 0.9177 -0.3974 -0.0000
vn 0.8341 -0.3612 -0.4170
vn 0.8341 0.3612 -0.4170
vn 0.9177 0.3974 -0.0000
vn -0.0000 0.8660 -0.5000
vn 1.0000 -0.0000 -0.0000
vn -0.8341 0.3612 -0.4170
vn -0.8341 -0.3612 -0.4170
vn -0.0000 -0.8660 -0.5000
vn -0.7071 -0.7071 -0.0000
vn -0.3482 0.3482 -0.8704
vn -0.5773 0.5774 -0.5774
vn 0.3481 0.3482 -0.8704
vn 0.5774 0.5773 -0.5774
vt -1.809530 22.171000
vt -2.923080 24.090099
vt -3.201470 23.770201
vt -0.695971 30.136400
vt -1.252750 32.065201
vt -1.809530 32.065201
vt 0.139194 30.716000
vt -0.139194 32.854401
vt -0.695971 32.854401
vt 0.695971 14.960600
vt 0.139194 31.889799
vt 0.139194 14.960600
vt 0.787402 0.000000
vt 2.952760 1.968500
vt 2.559060 2.362200
vt 5.118110 0.000000
vt 0.787402 14.960600
vt 5.118110 14.173200
vt 5.118110 14.960600
vt 0.556777 14.173200
vt -0.556777 14.960600
vt -0.556777 14.173200
vt -0.590551 4.527560
vt -0.787402 0.000000
vt -0.000000 0.787402
vt -1.771650 1.799920
vt -3.920110 14.173200
vt -0.947736 3.543310
vt -0.947736 14.173200
vt -7.361810 14.173200
vt -4.389430 3.543310
vt -4.389430 14.173200
vt -0.787402 9.055120
vt -1.771650 7.255200
vt 0.000000 8.267720
vt -0.787402 14.173200
vt -8.267720 14.960600
vt -8.267720 14.173200
vt 0.000000 0.787402
vt 0.787402 9.055120
vt 2.559060 7.086610
vt -2.362200 31.889799
vt -5.118110 35.433102
vt -7.086610 14.960600
vt -3.346460 36.220501
vt -2.559060 14.960600
vt -2.559060 36.220501
vt 5.985350 18.536400
vt 7.098910 20.455500
vt 5.428580 18.536400
vt 4.871800 27.725500
vt 5.428580 29.654301
vt 4.315020 27.725500
vt 4.036630 29.085100
vt 4.315020 31.223400
vt 3.479860 29.085100
vt 4.036630 14.960600
vt 3.479860 31.889799
vt 3.479860 14.960600
vt 3.346460 2.362200
vt 3.346460 7.086610
vt 5.118110 9.055120
vt -5.118110 14.960600
vt -0.787402 14.960600
vt 2.783880 14.173200
vt 1.670330 14.960600
vt 1.670330 14.173200
vt -5.314960 4.527560
vt -5.118110 9.055120
vt -5.905510 8.267720
vt -4.133860 7.255200
vt -1.771650 14.173200
vt -4.133860 3.543310
vt -1.771650 3.543310
vt 5.015200 3.543310
vt 2.042820 14.173200
vt 2.042820 3.543310
vt 1.808160 -0.863263
vt 5.015200 0.436232
vt 2.042820 0.436232
vt 6.501390 0.637264
vt 3.294350 1.936760
vt 2.785920 0.637264
vt 6.501390 0.000000
vt 2.785920 2.362200
vt 2.785920 0.000000
vt -5.905510 4.527560
vt -1.476380 1.118010
vt -1.476380 7.937110
vt 5.523630 0.000000
vt 1.808160 2.362200
vt 1.808160 0.000000
vt -1.476380 0.000000
vt -4.429130 2.362200
vt -4.429130 0.000000
vt -4.154770 0.000000
vt -7.870240 2.362200
vt -7.870240 0.000000
vt -0.439303 0.000000
vt -4.154770 2.362200
vt 4.429130 0.000000
vt 1.476380 2.362200
vt 1.476380 0.000000
vt 4.133860 3.968550
vt 1.476380 2.604730
vt 4.429130 2.604730
vt 4.133860 14.173200
vt 1.771650 3.543310
vt 4.133860 3.543310
vt 6.266720 3.543310
vt 3.294350 14.173200
vt 3.294350 3.543310
vt -5.118110 0.000000
vt -4.133860 1.799920
vt -5.905510 0.787402
vt 8.267720 14.173200
vt 0.787402 14.173200
vt 5.905510 0.787402
vt 5.905510 8.267720
vt 3.619050 14.960600
vt 4.732600 14.173200
vt 4.732600 14.960600
vt -0.947736 4.196750
vt -4.154770 2.897260
vt -0.439303 2.897260
vt -7.361810 2.696220
vt -4.154770 1.396730
vt -4.389430 2.696220
vt -1.771650 -0.559005
vt -4.429130 -1.922820
vt -1.476380 -1.922820
vt -6.959710 14.960600
vt -5.846160 14.173200
vt -5.846160 14.960600
vt 7.086610 36.220501
vt 3.543310 33.858299
vt 2.362200 14.960600
vt -1.252750 22.171000
vt -0.139194 30.136400
vt 0.695971 30.716000
vt 0.695971 31.889799
vt 0.556777 14.960600
vt -3.920110 3.543310
vt -7.361810 3.543310
vt -2.362200 14.960600
vt -3.543310 33.858299
vt -7.086610 36.220501
vt -2.952760 36.377998
vt -3.346460 14.960600
vt 7.377300 20.135599
vt 5.985350 29.654301
vt 4.871800 31.223400
vt 4.036630 31.889799
vt -5.118110 14.173200
vt 2.783880 14.960600
vt -4.133860 14.173200
vt 5.015200 14.173200
vt 5.523630 -0.863263
vt 6.266720 1.936760
vt 6.501390 2.362200
vt -4.429130 7.937110
vt -4.429130 1.118010
vt -0.000000 4.527560
vt 5.523630 2.362200
vt -1.476380 2.362200
vt -0.439303 2.362200
vt 4.429130 2.362200
vt 1.771650 3.968550
vt 1.771650 14.173200
vt 6.266720 14.173200
vt 8.267720 14.960600
vt 3.619050 14.173200
vt -3.920110 4.196750
vt -7.870240 1.396730
vt -4.133860 -0.559005
vt -6.959710 14.173200
vt 7.086610 14.960600
vt 5.118110 35.433102
vt 2.362200 31.889799
s 0
usemtl Gray3.001
f 1/1/1 3/2/1 4/3/1
f 5/4/2 2/5/2 1/6/2
f 7/7/3 6/8/3 5/9/3
f 10/10/4 7/11/4 9/12/4
f 30/48/12 3/49/12 2/50/12
f 31/51/13 2/52/13 6/53/13
f 32/54/14 6/55/14 8/56/14
f 33/57/15 8/58/15 10/59/15
f 1/1/27 2/138/27 3/2/27
f 5/4/28 6/139/28 2/5/28
f 7/7/3 8/140/3 6/8/3
f 10/10/4 8/141/4 7/11/4
f 30/48/29 28/150/29 3/49/29
f 31/51/30 30/151/30 2/52/30
f 32/54/14 31/152/14 6/55/14
f 33/57/15 32/153/15 8/58/15
usemtl Gray5.001
f 11/13/5 10/14/5 9/15/5
f 10/14/5 11/13/5 12/16/5
f 11/17/6 14/18/6 12/19/6
f 13/20/4 16/21/4 15/22/4
f 17/23/7 13/24/7 15/25/7
f 13/24/7 17/23/7 18/26/7
f 17/23/7 23/33/7 21/34/7
f 15/25/7 23/33/7 17/23/7
f 23/33/7 15/25/7 24/35/7
f 15/36/10 25/37/10 24/38/10
f 16/39/5 26/40/5 25/35/5
f 26/40/5 16/39/5 11/13/5
f 26/40/5 11/13/5 27/41/5
f 27/41/5 11/13/5 9/15/5
f 10/14/5 12/16/5 33/60/5
f 33/60/5 12/16/5 29/61/5
f 34/62/5 29/61/5 12/16/5
f 34/62/5 27/41/5 29/61/5
f 26/40/5 27/41/5 34/62/5
f 34/63/11 23/36/11 26/64/11
f 35/65/16 37/66/16 36/67/16
f 38/68/7 35/69/7 36/70/7
f 39/71/7 35/69/7 38/68/7
f 21/34/7 35/69/7 39/71/7
f 21/34/7 23/33/7 35/69/7
f 14/113/7 55/114/7 38/68/7
f 14/113/7 18/26/7 55/114/7
f 13/24/7 18/26/7 14/113/7
f 14/113/7 38/68/7 56/115/7
f 56/115/7 38/68/7 36/70/7
f 36/116/22 57/17/22 56/117/22
f 34/62/5 57/118/5 37/119/5
f 34/62/5 12/16/5 57/118/5
f 12/120/15 56/121/15 57/122/15
f 26/132/26 24/133/26 25/134/26
f 11/17/6 13/117/6 14/18/6
f 13/20/4 11/142/4 16/21/4
f 15/36/10 16/64/10 25/37/10
f 34/63/11 35/154/11 23/36/11
f 35/65/16 34/155/16 37/66/16
f 36/116/22 37/171/22 57/17/22
f 12/120/15 14/172/15 56/121/15
f 26/132/26 23/176/26 24/133/26
usemtl WarmGray8.001
f 17/27/8 20/28/8 18/29/8
f 21/30/9 19/31/9 17/32/9
f 21/72/11 40/73/11 22/74/11
f 40/75/17 38/76/17 41/77/17
f 42/78/18 40/79/18 41/80/18
f 42/81/19 45/82/19 44/83/19
f 47/84/20 44/85/20 46/86/20
f 47/87/7 49/88/7 51/89/7
f 48/90/17 42/91/17 47/92/17
f 51/93/11 43/94/11 48/95/11
f 50/96/9 52/97/9 51/98/9
f 49/99/8 53/100/8 50/96/8
f 46/101/6 54/102/6 49/103/6
f 45/104/21 54/105/21 44/106/21
f 55/107/6 20/108/6 45/109/6
f 41/110/20 55/111/20 45/112/20
f 20/123/23 53/124/23 54/125/23
f 22/126/24 53/127/24 19/128/24
f 22/129/25 43/130/25 52/131/25
f 17/27/8 19/143/8 20/28/8
f 21/30/9 22/144/9 19/31/9
f 21/72/11 39/156/11 40/73/11
f 40/75/17 39/157/17 38/76/17
f 42/78/18 43/158/18 40/79/18
f 42/81/19 41/159/19 45/82/19
f 47/84/20 42/160/20 44/85/20
f 51/89/7 48/161/7 47/87/7
f 47/87/7 46/162/7 49/88/7
f 49/88/7 50/163/7 51/89/7
f 48/90/17 43/164/17 42/91/17
f 51/93/11 52/165/11 43/94/11
f 50/96/9 53/100/9 52/97/9
f 49/99/8 54/166/8 53/100/8
f 46/101/6 44/167/6 54/102/6
f 45/104/21 20/168/21 54/105/21
f 55/107/6 18/169/6 20/108/6
f 41/110/20 38/170/20 55/111/20
f 20/123/23 19/173/23 53/124/23
f 22/126/24 52/174/24 53/127/24
f 22/129/25 40/175/25 43/130/25
usemtl Gray4.001
f 7/42/10 1/43/10 27/44/10
f 28/45/11 27/46/11 4/47/11
f 28/135/22 31/136/22 33/137/22
f 27/44/10 9/145/10 7/42/10
f 7/42/10 5/146/10 1/43/10
f 1/43/10 4/147/10 27/44/10
f 4/47/11 3/148/11 28/45/11
f 28/45/11 29/149/11 27/46/11
f 33/137/22 29/177/22 28/135/22
f 28/135/22 30/178/22 31/136/22
f 31/136/22 32/179/22 33/137/22
